<svg width="452" height="894" viewBox="0 0 452 894" fill="none" xmlns="http://www.w3.org/2000/svg">
<path d="M29.0845 454.88C53.0797 404.012 168.457 244.181 114.929 127.106C97.5415 89.0767 93.5251 42.4137 109.147 5H449V893.658H141.5C117.24 876.751 93.1801 853.944 69.0765 823.415C-37.7938 688.054 5.08935 505.748 29.0845 454.88Z" fill="url(#paint0_linear)" fill-opacity="0.8"/>
<path d="M147.395 625.054C114.182 407.187 261.454 337 304.452 213.409C331.868 134.605 272.287 28.1829 261.041 4.5H444.777C454.254 260.315 450.876 771.808 448.5 893.5H254.488C240.706 858.524 176.735 817.519 147.395 625.054Z" fill="white" fill-opacity="0.3"/>
<path d="M330.958 221.174C338.895 145 294.853 14.3944 292.847 4.42912L449.303 4.42868C449.303 249.458 449.455 741.769 449 894H286.726C271.045 811.937 218.58 632.807 240.695 545.045C278 397 319.306 333 330.958 221.174Z" fill="white" fill-opacity="0.3"/>
<defs>
<linearGradient id="paint0_linear" x1="82.1053" y1="-32" x2="82.1053" y2="931.143" gradientUnits="userSpaceOnUse">
<stop stop-color="#FBDA68"/>
<stop offset="1" stop-color="#E69191"/>
</linearGradient>
</defs>
</svg>
