<svg width="459" height="791" viewBox="0 0 459 791" fill="none" xmlns="http://www.w3.org/2000/svg">
<rect width="459" height="791" fill="#F9F6F6"/>
<path d="M128.234 -369L458 -369L458 1012C410.7 995.942 306.907 935.322 270.134 821.309C233.36 707.297 353.912 538.285 372.061 441.936C386.051 367.667 363.267 279.749 216.172 136.831C69.0765 -6.08629 96.2572 -259.939 128.234 -369Z" fill="white" fill-opacity="0.5"/>
<path d="M34.556 -367L460 -367L460 1014C398.977 997.942 265.069 937.322 217.626 823.309C170.182 709.296 325.712 540.285 349.127 443.936C367.176 369.667 337.781 281.749 148.008 138.831C-41.7661 -4.08633 -6.69919 -257.939 34.556 -367Z" fill="white" fill-opacity="0.5"/>
</svg>
