<svg width="458" height="1383" viewBox="0 0 458 1383" fill="none" xmlns="http://www.w3.org/2000/svg">
<path d="M126.234 -0.000258555L456 -0.000244141L456 1381C408.7 1364.94 304.907 1304.32 268.134 1190.31C231.36 1076.3 351.912 907.285 370.061 810.936C384.051 736.667 361.267 648.749 214.172 505.831C67.0765 362.914 94.2572 109.061 126.234 -0.000258555Z" fill="white" fill-opacity="0.5"/>
<path d="M32.556 1.99974L458 1.99976L458 1383C396.977 1366.94 263.069 1306.32 215.626 1192.31C168.182 1078.3 323.712 909.285 347.127 812.936C365.176 738.667 335.781 650.749 146.008 507.831C-43.7661 364.914 -8.69919 111.061 32.556 1.99974Z" fill="white" fill-opacity="0.5"/>
</svg>
