<svg width="387" height="30" viewBox="0 0 387 30" fill="none" xmlns="http://www.w3.org/2000/svg">
<path d="M0 10C0 4.47715 4.47715 0 10 0H377C382.523 0 387 4.47715 387 10V20C387 25.5228 382.523 30 377 30H10C4.47716 30 0 25.5228 0 20V10Z" fill="#4D4C4C"/>
<path d="M0 10C0 4.47715 4.47715 0 10 0H298C303.523 0 308 4.47715 308 10V20C308 25.5228 303.523 30 298 30H10C4.47716 30 0 25.5228 0 20V10Z" fill="url(#paint0_linear)"/>
<defs>
<linearGradient id="paint0_linear" x1="282.731" y1="15" x2="28.6068" y2="15" gradientUnits="userSpaceOnUse">
<stop stop-color="#E69191"/>
<stop offset="1" stop-color="#FBDA68"/>
</linearGradient>
</defs>
</svg>
