<svg width="360" height="640" viewBox="0 0 360 640" fill="none" xmlns="http://www.w3.org/2000/svg">
<path d="M-403 -25H608V624.181C608 637.147 603.099 649.493 593.432 658.134C536.911 708.659 324.473 873.052 107.279 711.848C-146.325 523.621 -403 711.848 -403 711.848V-25Z" fill="url(#paint0_linear)"/>
<path fill-rule="evenodd" clip-rule="evenodd" d="M360 411.462C323.117 401.534 283.645 377.055 247.36 354.552C216.35 335.321 187.667 317.533 164.919 311.507C122.194 300.188 72.852 313.942 0 403.066V253H360V411.462Z" fill="white" fill-opacity="0.5"/>
<path fill-rule="evenodd" clip-rule="evenodd" d="M360 462C323.509 448.895 284.563 417.734 248.725 389.061C217.715 364.25 189.033 341.301 166.284 333.526C123.293 318.832 73.6017 336.89 0 453.811V253H360V462Z" fill="white" fill-opacity="0.5"/>
<rect width="360" height="253" fill="white" fill-opacity="0.75"/>
<defs>
<linearGradient id="paint0_linear" x1="-309.623" y1="567.095" x2="494.477" y2="421.798" gradientUnits="userSpaceOnUse">
<stop stop-color="#FBDA68"/>
<stop offset="0.989583" stop-color="#E69191"/>
</linearGradient>
</defs>
</svg>
