<svg width="448" height="935" viewBox="0 0 448 935" fill="none" xmlns="http://www.w3.org/2000/svg">
<path d="M114.929 122.106C91.072 69.9268 92.3874 1.49332 135.063 -37H449V925.333C304.302 932.176 187.213 968.045 69.0765 818.415C-37.7938 683.054 5.08935 500.748 29.0845 449.88C53.0797 399.012 168.457 239.181 114.929 122.106Z" fill="url(#paint0_linear)" fill-opacity="0.8"/>
<path d="M304.452 208.409C334.166 123 261.688 5.14937 259.312 -4.64627C256.936 -14.4419 444.621 -4.6467 444.621 -4.6467C455.708 285.141 442.245 914.919 442.245 914.919C442.245 914.919 309.203 916.552 256.937 905.124C261.688 862.676 181.35 842.793 147.395 620.054C114.182 402.187 261.454 332 304.452 208.409Z" fill="white" fill-opacity="0.3"/>
<path d="M330.958 216.174C338.895 140 294.853 9.39438 292.847 -0.570881C290.841 -10.5361 449.303 -0.571318 449.303 -0.571318C458.664 294.234 447.297 934.918 447.297 934.918C447.297 934.918 334.97 936.579 290.841 924.953C294.853 881.77 214.184 645.254 240.695 540.045C278 392 319.306 328 330.958 216.174Z" fill="white" fill-opacity="0.3"/>
<defs>
<linearGradient id="paint0_linear" x1="82.1053" y1="-37" x2="82.1053" y2="926.143" gradientUnits="userSpaceOnUse">
<stop stop-color="#FBDA68"/>
<stop offset="1" stop-color="#E69191"/>
</linearGradient>
</defs>
</svg>
