<?xml version="1.0" encoding="UTF-8" standalone="no"?>
<!DOCTYPE svg PUBLIC "-//W3C//DTD SVG 1.1//EN" "http://www.w3.org/Graphics/SVG/1.1/DTD/svg11.dtd">
<svg width="100%" height="100%" viewBox="0 0 448 935" version="1.1" xmlns="http://www.w3.org/2000/svg" xmlns:xlink="http://www.w3.org/1999/xlink" xml:space="preserve" xmlns:serif="http://www.serif.com/" style="fill-rule:evenodd;clip-rule:evenodd;stroke-linejoin:round;stroke-miterlimit:1.41421;">
    <g transform="matrix(1,0,0,1,3.71485e-06,18.5)">
        <clipPath id="_clip1">
            <rect x="0" y="-5.008" width="453" height="800.029"/>
        </clipPath>
        <g clip-path="url(#_clip1)">
            <path d="M114.929,122.106C91.072,69.927 92.387,1.493 135.063,-37L449,-37L449,925.333C304.302,932.176 187.213,968.045 69.077,818.415C-37.794,683.054 5.089,500.748 29.084,449.88C53.08,399.012 168.457,239.181 114.929,122.106Z" style="fill:url(#_Linear2);fill-rule:nonzero;"/>
            <path d="M304.452,208.409C334.166,123 261.688,5.149 259.312,-4.646C256.936,-14.442 444.621,-4.647 444.621,-4.647C455.708,285.141 442.245,914.919 442.245,914.919C442.245,914.919 309.203,916.552 256.937,905.124C261.688,862.676 181.35,842.793 147.395,620.054C114.182,402.187 261.454,332 304.452,208.409Z" style="fill:white;fill-opacity:0.3;fill-rule:nonzero;"/>
            <path d="M330.958,216.174C338.895,140 294.853,9.394 292.847,-0.571C290.841,-10.536 449.303,-0.571 449.303,-0.571C458.664,294.234 447.297,934.918 447.297,934.918C447.297,934.918 334.97,936.579 290.841,924.953C294.853,881.77 214.184,645.254 240.695,540.045C278,392 319.306,328 330.958,216.174Z" style="fill:white;fill-opacity:0.3;fill-rule:nonzero;"/>
        </g>
    </g>
    <defs>
        <linearGradient id="_Linear2" x1="0" y1="0" x2="1" y2="0" gradientUnits="userSpaceOnUse" gradientTransform="matrix(5.89755e-14,963.143,-963.143,5.89755e-14,82.1053,-37)"><stop offset="0" style="stop-color:rgb(251,218,104);stop-opacity:0.8"/><stop offset="1" style="stop-color:rgb(230,145,145);stop-opacity:0.8"/></linearGradient>
    </defs>
</svg>
