<svg width="84" height="84" viewBox="0 0 84 84" fill="none" xmlns="http://www.w3.org/2000/svg">
<circle cx="42" cy="42" r="42" fill="url(#paint0_linear)"/>
<path d="M46.3081 19V23.5869H25.317C23.8138 23.5908 22.5861 24.8203 22.5826 26.3248V33.1176H18V26.3251C18 25.9154 18.034 25.5248 18.0994 25.1228C18.4475 23.0665 19.6256 21.2937 21.3736 20.1606C22.5708 19.3948 23.898 19.008 25.317 19.0004H46.3081V19ZM37.6562 44.8528C37.0667 45.0473 36.4563 45.2342 35.8596 45.4295C35.2698 45.624 34.6731 45.825 34.0627 46.0195C32.6475 46.4779 31.8706 46.7352 31.7039 46.7831C31.5375 46.8317 31.6415 46.1719 31.9953 44.8034L33.1191 40.4979L40.1882 33.0947L44.7047 37.4488L37.6562 44.8528ZM44.684 29.8996C44.4687 29.7051 44.2262 29.5941 43.9558 29.6079C43.6854 29.6079 43.4425 29.712 43.2409 29.9272L41.6318 31.6009L46.1474 35.97L47.7707 34.2687C47.9658 34.0738 48.0419 33.8103 48.0419 33.5392C48.0419 33.2685 47.9375 33.0047 47.7363 32.8243L44.684 29.8996ZM58.8725 57.8734V64H54.2872V57.8734H48.4462V53.2826H54.2872V45.6971H58.8691V53.283H65V57.8699H58.8725V57.8734ZM18 37.7053H22.5822V50.5448C22.5861 51.5745 23.1636 52.5049 24.0736 52.9797L21.9779 57.0616C20.4594 56.2724 19.2771 55.0096 18.5967 53.4389C18.1989 52.5084 18.0038 51.5549 18 50.5482V37.7053V37.7053ZM27.5202 57.8734V53.2826H43.8636V57.8696H27.5202V57.8734ZM58.8691 41.1094H54.2872V26.3251C54.2826 24.8203 53.0552 23.5911 51.5524 23.5873H50.8907V19H51.5524C51.9617 19 52.3518 19.0345 52.7531 19.0996C54.8074 19.448 56.578 20.6274 57.7105 22.3773C58.4755 23.5758 58.8618 24.9045 58.8691 26.3251V41.1094V41.1094Z" fill="white"/>
<defs>
<linearGradient id="paint0_linear" x1="42" y1="0" x2="42" y2="84" gradientUnits="userSpaceOnUse">
<stop stop-color="#F4C993"/>
<stop offset="1" stop-color="#E69191"/>
</linearGradient>
</defs>
</svg>
