<svg width="84" height="84" viewBox="0 0 84 84" fill="none" xmlns="http://www.w3.org/2000/svg">
<circle cx="42" cy="42" r="42" fill="url(#paint0_linear)"/>
<path fill-rule="evenodd" clip-rule="evenodd" d="M18.0742 54.8414H22.3874C21.9927 54.7392 21.6956 54.3753 21.6956 53.946V27.924C21.6956 27.417 22.1107 27 22.6152 27H61.1366C61.6452 27 62.0562 27.417 62.0562 27.924V53.946C62.0562 54.3753 61.7632 54.7351 61.3644 54.8373H65.9217C66.5158 54.8373 66.9959 55.3238 66.9959 55.9166C66.9959 56.5135 66.5117 56.9959 65.9217 56.9959H18.0742C17.4842 57 17 56.5135 17 55.9166C17 55.3279 17.4842 54.8414 18.0742 54.8414ZM51.6029 42.3966C51.5093 42.3312 51.4076 42.3066 51.3018 42.3271C51.1919 42.3475 51.1064 42.4047 51.0413 42.4988L50.6873 43.0016C50.5571 42.9485 50.4269 42.9035 50.2886 42.8667C50.1502 42.8299 50.0119 42.8013 49.8735 42.7809L49.7596 42.1186C49.7393 42.0041 49.6864 41.9182 49.5968 41.8569C49.5073 41.7915 49.4056 41.7711 49.2957 41.7915L48.4697 41.9346C48.3639 41.955 48.2785 42.0082 48.2134 42.0981C48.1483 42.1881 48.1239 42.2903 48.1442 42.4007L48.25 43.0057C48.1198 43.063 47.9896 43.1284 47.8716 43.202C47.7495 43.2756 47.6356 43.3532 47.5339 43.435L46.9764 43.0466C46.8869 42.9812 46.7892 42.9567 46.6794 42.973C46.5736 42.9935 46.4841 43.0507 46.4189 43.1406L45.9429 43.8234C45.8778 43.9174 45.8534 44.0196 45.8737 44.1259C45.894 44.2363 45.9469 44.3222 46.0405 44.3876L46.541 44.7433C46.4881 44.8741 46.4434 45.0049 46.4067 45.1439C46.3701 45.2829 46.3416 45.4219 46.3254 45.5609L45.6662 45.6754C45.5563 45.6958 45.4668 45.749 45.4058 45.8389C45.3407 45.9289 45.3203 46.0311 45.3407 46.1415L45.4831 46.9836C45.5034 47.0899 45.5563 47.1758 45.6458 47.2412C45.7354 47.3066 45.8371 47.3271 45.9469 47.3107L46.5492 47.2044C46.6061 47.3352 46.6712 47.4661 46.7404 47.5846C46.8136 47.7073 46.891 47.8218 46.9764 47.9321L46.5898 48.4841C46.5247 48.574 46.5003 48.6721 46.5207 48.7825C46.541 48.8888 46.598 48.9787 46.6875 49.0442L47.367 49.5307C47.4606 49.592 47.5583 49.6124 47.6681 49.592C47.7739 49.5715 47.8634 49.5184 47.9286 49.4325L48.2826 48.9215C48.4128 48.9747 48.543 49.0196 48.6813 49.0564C48.8197 49.0932 48.958 49.1218 49.0964 49.1423L49.2103 49.8046C49.2306 49.9191 49.2835 50.0049 49.373 50.0662C49.4626 50.1316 49.5643 50.1521 49.6742 50.1316L50.5002 49.9845C50.606 49.9681 50.6914 49.9109 50.7565 49.8209C50.8216 49.731 50.846 49.6288 50.8257 49.5184L50.7199 48.9133C50.8542 48.8561 50.9803 48.7907 51.0983 48.7212C51.2204 48.6476 51.3343 48.5699 51.4442 48.4841L51.9935 48.8724C52.083 48.9379 52.1807 48.9624 52.2905 48.9419C52.4045 48.9215 52.4899 48.8643 52.5509 48.7743L53.0352 48.0916C53.0962 47.9975 53.1165 47.8994 53.0962 47.789C53.0758 47.6827 53.023 47.5928 52.9375 47.5274L52.4289 47.1717C52.4818 47.0409 52.5265 46.9101 52.5632 46.7711C52.5998 46.6361 52.6242 46.4931 52.6486 46.354L53.3078 46.2396C53.4176 46.2191 53.5072 46.166 53.5682 46.076C53.6292 45.9861 53.6536 45.8839 53.6333 45.7735L53.4909 44.9436C53.4705 44.8373 53.4176 44.7514 53.3281 44.686C53.2386 44.6206 53.1369 44.5961 53.027 44.6165L52.4248 44.7228C52.3678 44.5961 52.3068 44.4693 52.2336 44.3467C52.1603 44.224 52.083 44.1055 51.9976 43.9992L52.3841 43.4391C52.4492 43.3491 52.4736 43.251 52.4533 43.1406C52.4329 43.0343 52.38 42.9444 52.2865 42.879L51.6029 42.3966ZM49.2062 44.3508C49.4259 44.314 49.6416 44.3181 49.8532 44.3671C50.0648 44.4203 50.252 44.502 50.4229 44.6206C50.5897 44.7392 50.7362 44.8904 50.8542 45.0744C50.9722 45.2584 51.0495 45.4587 51.0861 45.6795C51.1227 45.9002 51.1187 46.1169 51.0698 46.3295C51.021 46.5421 50.9355 46.7302 50.8175 46.9019C50.6995 47.0736 50.549 47.2167 50.3659 47.3352C50.1828 47.4538 49.9834 47.5315 49.7637 47.5683C49.5439 47.6051 49.3283 47.601 49.1167 47.5519C48.9051 47.4988 48.7139 47.417 48.547 47.2984C48.3761 47.1799 48.2337 47.0286 48.1157 46.8446C48.0018 46.6648 47.9245 46.4603 47.8838 46.2396C47.8472 46.0188 47.8512 45.8021 47.9001 45.5895C47.9489 45.3769 48.0343 45.1889 48.1523 45.0172C48.2703 44.8496 48.4209 44.7024 48.604 44.5838C48.7871 44.4653 48.9865 44.3876 49.2062 44.3508ZM42.8667 34.5102C42.8341 34.4775 42.8016 34.453 42.7731 34.4407C42.7446 34.4285 42.7121 34.4244 42.6673 34.4244C42.6226 34.4244 42.59 34.4285 42.5615 34.4407C42.533 34.453 42.5005 34.4734 42.472 34.5061L42.4679 34.5102L41.6786 35.3034C41.5239 35.4587 41.2798 35.4751 41.1048 35.3565C41.0153 35.2993 40.9217 35.242 40.82 35.1889C40.7101 35.1276 40.6043 35.0744 40.5026 35.0294C40.3968 34.9804 40.2869 34.9354 40.173 34.8904C40.0754 34.8536 39.9614 34.8128 39.8353 34.7678C39.6481 34.7065 39.526 34.5266 39.526 34.3385V33.1202C39.526 33.0752 39.5179 33.0384 39.5057 33.0057C39.4935 32.973 39.4731 32.9485 39.4447 32.9199C39.4162 32.8913 39.3877 32.8708 39.3592 32.8585C39.3267 32.8463 39.29 32.8381 39.2453 32.8381H37.7235C37.6828 32.8381 37.6502 32.8422 37.6217 32.8545C37.5892 32.8667 37.5566 32.8872 37.5241 32.924C37.4956 32.9526 37.4753 32.9812 37.4631 33.0098C37.4508 33.0384 37.4427 33.0752 37.4427 33.1202V34.2363C37.4427 34.4612 37.284 34.6451 37.0724 34.6819C36.9544 34.7105 36.8446 34.7392 36.7469 34.7678C36.637 34.8005 36.5272 34.8414 36.4173 34.8823C36.3115 34.9231 36.2057 34.9681 36.0959 35.0213C35.986 35.0744 35.8843 35.1235 35.7907 35.1766C35.6117 35.2747 35.396 35.2379 35.2617 35.103L34.3869 34.2363C34.3828 34.2322 34.3787 34.2281 34.3747 34.2281C34.3462 34.1995 34.3177 34.1791 34.2933 34.1668C34.2689 34.1545 34.2363 34.1505 34.1956 34.1505C34.1549 34.1505 34.1224 34.1545 34.0939 34.1668C34.0614 34.1832 34.0288 34.2036 33.9963 34.2363L32.9342 35.3074C32.9017 35.3442 32.8773 35.3729 32.8651 35.4015C32.8529 35.4301 32.8488 35.4628 32.8488 35.5078C32.8488 35.5527 32.8529 35.5854 32.8651 35.6141C32.8773 35.6468 32.9017 35.6754 32.9302 35.7081L32.9342 35.7122L33.7236 36.5053C33.8783 36.6607 33.8945 36.906 33.7765 37.0818C33.7196 37.1717 33.6626 37.2657 33.6097 37.3679C33.5487 37.4783 33.4958 37.5846 33.451 37.6868C33.4022 37.7972 33.3574 37.9076 33.3127 38.018C33.276 38.1161 33.2354 38.2306 33.1906 38.3573C33.1296 38.5495 32.9505 38.668 32.7633 38.668H31.5508C31.506 38.668 31.4694 38.6721 31.4368 38.6885C31.4084 38.7007 31.3758 38.7212 31.3514 38.7498C31.3229 38.7743 31.3066 38.807 31.2944 38.8357C31.2822 38.8684 31.2741 38.9052 31.2741 38.9501V40.4792C31.2741 40.52 31.2822 40.5527 31.2904 40.5814C31.3026 40.6141 31.327 40.6468 31.3595 40.6795C31.384 40.7081 31.4124 40.7244 31.4409 40.7367C31.4694 40.749 31.506 40.7572 31.5508 40.7572H32.6616C32.8813 40.7572 33.0685 40.9207 33.1051 41.1292C33.1336 41.2478 33.1621 41.3581 33.1906 41.4563C33.2272 41.5707 33.2638 41.6811 33.3045 41.7915C33.3452 41.8978 33.39 42.0082 33.4429 42.1227C33.4958 42.2412 33.5487 42.3516 33.5975 42.4456C33.6911 42.6255 33.6504 42.8381 33.5161 42.973L32.6535 43.8397L32.6453 43.8479C32.6169 43.8765 32.5965 43.9052 32.5843 43.9338C32.5721 43.9583 32.568 43.991 32.568 44.0319C32.568 44.0728 32.5762 44.1055 32.5884 44.1341C32.6006 44.1709 32.625 44.2036 32.6576 44.2363L33.7114 45.3074C33.744 45.3361 33.7725 45.3565 33.805 45.3688C33.8376 45.381 33.8783 45.3892 33.9189 45.3892C33.9637 45.3892 34.0044 45.381 34.0369 45.3688C34.0695 45.3565 34.098 45.3361 34.1265 45.3115L34.9036 44.498C35.0583 44.3385 35.3024 44.3181 35.4814 44.4407C35.571 44.498 35.6646 44.5552 35.7663 44.6083C35.8761 44.6697 35.9819 44.7228 36.0837 44.7678C36.1895 44.8168 36.3034 44.8618 36.4132 44.9068C36.5109 44.9436 36.6248 44.9845 36.755 45.0294C36.9422 45.0908 37.0643 45.2706 37.0643 45.4587V46.677C37.0643 46.722 37.0724 46.7588 37.0846 46.7915C37.0968 46.8242 37.1172 46.8528 37.1457 46.8774C37.1986 46.9305 37.2637 46.9591 37.3451 46.9591H38.8669C38.9076 46.9591 38.9401 46.9509 38.9686 46.9428C39.0011 46.9305 39.0337 46.906 39.0662 46.8733C39.0947 46.8446 39.111 46.816 39.1232 46.7874C39.1354 46.7588 39.1436 46.722 39.1436 46.677V45.5609C39.1436 45.3361 39.3022 45.1521 39.5138 45.1153C39.6318 45.0867 39.7417 45.0581 39.8394 45.0294C39.9492 44.9967 40.0591 44.9558 40.1689 44.915C40.2747 44.8741 40.3846 44.8291 40.4985 44.776C40.6165 44.7228 40.7223 44.6697 40.82 44.6206C40.999 44.5266 41.2106 44.5675 41.3449 44.7024L42.2035 45.5691L42.2116 45.5773C42.2401 45.6059 42.2686 45.6304 42.293 45.6386C42.3174 45.6509 42.3499 45.6549 42.3947 45.6549C42.4354 45.6549 42.472 45.6468 42.5005 45.6386C42.529 45.6263 42.5575 45.6059 42.5819 45.5773C42.5859 45.5732 42.5941 45.565 42.5981 45.5609L43.6602 44.5061C43.6886 44.4734 43.709 44.4448 43.7212 44.4121C43.7334 44.3794 43.7415 44.3426 43.7415 44.2976C43.7415 44.2527 43.7334 44.2159 43.7212 44.1791C43.709 44.1464 43.6886 44.1177 43.6642 44.0891L42.8708 43.3042C42.7121 43.1488 42.6917 42.9035 42.8138 42.7277C42.8708 42.6378 42.9277 42.5437 42.9806 42.4415C43.0376 42.3312 43.0905 42.2249 43.1393 42.1227C43.1882 42.0164 43.2329 41.906 43.2777 41.7915C43.3143 41.6934 43.355 41.5789 43.3957 41.4522C43.4567 41.26 43.6357 41.1415 43.8229 41.1415H45.0355C45.0802 41.1415 45.1169 41.1374 45.1494 41.121C45.182 41.1088 45.2105 41.0883 45.2349 41.0638C45.2878 41.0106 45.3162 40.9452 45.3162 40.8635V39.3344C45.3162 39.2935 45.3122 39.2608 45.3 39.2322C45.2878 39.1995 45.2633 39.1668 45.2308 39.1341C45.2023 39.1055 45.1738 39.0891 45.1453 39.0769C45.1128 39.0646 45.0762 39.0564 45.0355 39.0564H43.9246C43.7008 39.0564 43.5137 38.8929 43.4811 38.6762C43.4567 38.574 43.4282 38.4718 43.3957 38.3696C43.3631 38.2633 43.3265 38.1529 43.2777 38.0303C43.2736 38.0221 43.2736 38.0139 43.2695 38.0057C43.2288 37.8953 43.1841 37.7931 43.1393 37.6991C43.0905 37.5928 43.0417 37.4906 42.9888 37.3925C42.8911 37.2126 42.9277 36.9959 43.062 36.861L43.9246 35.982C43.9287 35.9779 43.9328 35.9738 43.9368 35.9738C43.9653 35.9452 43.9857 35.9166 43.9979 35.8921C44.0101 35.8675 44.0142 35.8348 44.0142 35.794C44.0142 35.7531 44.0101 35.7204 43.9979 35.6917C43.9816 35.659 43.9613 35.6263 43.9287 35.5936L42.8667 34.5102ZM43.119 33.6067C43.2614 33.668 43.3916 33.7539 43.5055 33.8684L44.5716 34.9354L44.5757 34.9395C44.6896 35.054 44.7751 35.1807 44.832 35.3197C44.8931 35.4628 44.9256 35.6141 44.9256 35.7776C44.9256 35.9411 44.8931 36.0924 44.832 36.2355C44.771 36.3786 44.6815 36.5012 44.5675 36.6116L43.9409 37.2494C43.9491 37.2698 43.9613 37.2903 43.9694 37.3107C44.0223 37.4334 44.0752 37.5519 44.12 37.6746C44.124 37.6827 44.124 37.6868 44.1281 37.695C44.1769 37.8177 44.2217 37.9485 44.2624 38.0875L44.2746 38.1366H45.0396C45.2023 38.1366 45.3529 38.1652 45.4953 38.2265C45.6336 38.2878 45.7598 38.3737 45.8737 38.4841L45.8818 38.4922C45.9917 38.6067 46.0731 38.7334 46.1341 38.8724C46.1952 39.0155 46.2236 39.1627 46.2236 39.3181V40.8471C46.2236 41.1783 46.1097 41.4563 45.8778 41.6893C45.7638 41.8038 45.6336 41.8937 45.4912 41.9509C45.3488 42.0082 45.2023 42.0368 45.0396 42.0368H44.1444C44.1362 42.0613 44.1281 42.0859 44.1159 42.1104C44.0671 42.2371 44.0142 42.3639 43.9531 42.4906C43.8921 42.6255 43.8311 42.7482 43.77 42.8626C43.7619 42.8749 43.7537 42.8913 43.7497 42.9035L44.2909 43.4432C44.299 43.4473 44.3031 43.4554 44.3112 43.4595C44.4211 43.574 44.5024 43.7048 44.5594 43.8438C44.6164 43.9869 44.6449 44.1341 44.6449 44.2895C44.6449 44.4448 44.6164 44.592 44.5594 44.7351C44.5065 44.8741 44.4251 45.0049 44.3153 45.1194C44.3112 45.1235 44.3071 45.1276 44.3031 45.1316L43.2329 46.1946C43.123 46.3132 42.9969 46.399 42.8545 46.4603C42.7121 46.5217 42.5575 46.5503 42.3947 46.5503C42.2319 46.5503 42.0814 46.5176 41.9349 46.4563C41.7925 46.3949 41.6663 46.305 41.5565 46.1864L40.9299 45.5568C40.9054 45.5691 40.8851 45.5773 40.8647 45.5854C40.7467 45.6386 40.6247 45.6917 40.4863 45.7408C40.3602 45.7899 40.23 45.8348 40.0916 45.8798C40.0713 45.8839 40.055 45.8921 40.0347 45.8962V46.6648C40.0347 46.8242 40.0062 46.9796 39.9452 47.1227C39.8882 47.2657 39.8027 47.3884 39.6888 47.5029L39.6807 47.511C39.5667 47.6214 39.4406 47.7032 39.3022 47.7645C39.1598 47.8218 39.0133 47.8545 38.8587 47.8545H37.3369C37.0073 47.8545 36.7306 47.74 36.4987 47.507C36.3848 47.3925 36.2952 47.2617 36.2383 47.1186C36.1813 46.9755 36.1528 46.8242 36.1528 46.6648V45.7653C36.1284 45.7572 36.104 45.749 36.0796 45.7367C35.9535 45.6877 35.8273 45.6345 35.7012 45.5732C35.571 45.5119 35.4448 45.4505 35.3309 45.3892C35.3187 45.381 35.3024 45.3769 35.2902 45.3688L34.7572 45.9166C34.7531 45.9207 34.745 45.9289 34.7409 45.933C34.627 46.0433 34.4967 46.1251 34.3584 46.1823C34.216 46.2396 34.0695 46.2641 33.9108 46.2641C33.7562 46.2641 33.6097 46.2355 33.4673 46.1823C33.3249 46.1292 33.1987 46.0474 33.0848 45.937C33.0807 45.933 33.0767 45.9289 33.0726 45.9207L32.0065 44.8373C31.8926 44.7228 31.8071 44.5961 31.7502 44.4571C31.6891 44.314 31.6566 44.1627 31.6566 43.9992C31.6566 43.8357 31.6891 43.6844 31.7502 43.5413C31.8112 43.3982 31.9007 43.2756 32.0146 43.1652L32.6413 42.5356C32.6291 42.5151 32.6209 42.4906 32.6087 42.4702C32.5558 42.3516 32.5029 42.2289 32.4541 42.0899C32.4053 41.9591 32.3564 41.8283 32.3158 41.6934L32.2995 41.6361H31.5345C31.3717 41.6361 31.2212 41.6075 31.0788 41.5462C30.9404 41.4849 30.8143 41.399 30.7004 41.2886L30.6922 41.2805C30.5824 41.166 30.501 41.0392 30.4399 40.9002C30.383 40.7572 30.3504 40.61 30.3504 40.4546V38.9256C30.3504 38.7662 30.3789 38.6149 30.4359 38.4718C30.4928 38.3287 30.5783 38.202 30.6963 38.0875C30.8102 37.973 30.9404 37.8872 31.0788 37.8258C31.2212 37.7686 31.3717 37.74 31.5304 37.74H32.4256C32.4338 37.7155 32.4419 37.695 32.4541 37.6705C32.5029 37.5437 32.5558 37.417 32.6169 37.2903C32.6779 37.1554 32.7389 37.0327 32.8 36.9182C32.8081 36.906 32.8162 36.8896 32.8244 36.8733L32.2832 36.3295C32.1693 36.215 32.0838 36.0883 32.0228 35.9452C31.9618 35.798 31.9292 35.6468 31.9292 35.4873C31.9292 35.3279 31.9618 35.1766 32.0228 35.0335C32.0838 34.8904 32.1693 34.7596 32.2832 34.6492L33.3452 33.5781L33.3493 33.574C33.4632 33.4595 33.5894 33.3737 33.7277 33.3164C33.8701 33.2551 34.0247 33.2224 34.1834 33.2224C34.3462 33.2224 34.4967 33.2551 34.6432 33.3164C34.7816 33.3778 34.9077 33.4677 35.0176 33.5822L35.6523 34.2118C35.6727 34.2036 35.689 34.1954 35.7093 34.1832C35.8273 34.13 35.9535 34.0769 36.0837 34.0237C36.2098 33.9747 36.34 33.9297 36.4784 33.8888C36.4946 33.8847 36.515 33.8765 36.5313 33.8724V33.1038C36.5313 32.9403 36.5597 32.789 36.6208 32.646C36.6777 32.5029 36.7632 32.3802 36.8771 32.2657L36.8853 32.2576C36.9992 32.1472 37.1253 32.0613 37.2637 32.0041C37.4061 31.9428 37.5566 31.9141 37.7072 31.9141H39.229C39.3877 31.9141 39.5383 31.9428 39.6807 32C39.8231 32.0613 39.9533 32.1472 40.0672 32.2576C40.1812 32.372 40.2666 32.5029 40.3276 32.6419C40.3846 32.785 40.4131 32.9362 40.4131 33.0957V33.9951C40.4375 34.0033 40.4578 34.0114 40.4823 34.0237C40.6084 34.0728 40.7345 34.1259 40.8647 34.1832C40.995 34.2445 41.1211 34.3058 41.235 34.3671L41.2798 34.3917L41.821 33.8479C41.9349 33.7334 42.061 33.6476 42.2035 33.5863C42.3499 33.5249 42.5005 33.4922 42.6592 33.4922C42.8219 33.5168 42.9766 33.5454 43.119 33.6067ZM38.2891 36.4522C38.5251 36.4522 38.7489 36.4767 38.9727 36.5176C39.1924 36.5626 39.408 36.628 39.6237 36.722H39.6278C39.8312 36.8119 40.0265 36.9182 40.2096 37.0409C40.3927 37.1635 40.5596 37.3025 40.7142 37.4579C40.8688 37.6132 41.0072 37.785 41.1292 37.9689C41.2513 38.1529 41.3571 38.3491 41.4466 38.5536C41.4507 38.5658 41.4588 38.5781 41.4588 38.5904C41.5443 38.7948 41.6053 39.0033 41.646 39.2118C41.6908 39.4366 41.7111 39.6656 41.7111 39.8986C41.7111 40.1357 41.6867 40.3647 41.646 40.5854C41.6012 40.8062 41.5361 41.0229 41.4425 41.2396V41.2437C41.353 41.4481 41.2472 41.6443 41.1252 41.8283C41.0031 42.0123 40.8647 42.1799 40.7101 42.3393C40.5555 42.4947 40.3887 42.6337 40.2056 42.7563C40.0225 42.879 39.8271 42.9853 39.6237 43.0752C39.6115 43.0793 39.5993 43.0875 39.5871 43.0916C39.3836 43.1774 39.1761 43.2388 38.9686 43.2796C38.7448 43.3246 38.5169 43.3491 38.285 43.3491C38.049 43.3491 37.8252 43.3246 37.6014 43.2796C37.3817 43.2347 37.166 43.1693 36.9504 43.0752H36.9463C36.7428 42.9894 36.5475 42.879 36.3644 42.7563C36.1813 42.6337 36.0145 42.4947 35.8558 42.3393C35.7012 42.184 35.5628 42.0123 35.4448 41.8283C35.3228 41.6443 35.217 41.4481 35.1274 41.2437C35.1234 41.2314 35.1152 41.2191 35.1112 41.2069C35.0257 41.0025 34.9647 40.794 34.924 40.5854C34.8792 40.3606 34.8548 40.1316 34.8548 39.8986C34.8548 39.6615 34.8752 39.4366 34.924 39.2118C34.9688 38.991 35.0339 38.7743 35.1274 38.5576V38.5536C35.217 38.3491 35.3187 38.1529 35.4448 37.9689C35.5669 37.785 35.7052 37.6173 35.8599 37.4579C36.0145 37.3025 36.1854 37.1635 36.3685 37.0409C36.5516 36.9182 36.7469 36.8119 36.9504 36.722C36.9626 36.7179 36.9748 36.7097 36.987 36.7056C37.1904 36.6198 37.3979 36.5585 37.6055 36.5176C37.8293 36.4726 38.0571 36.4522 38.2891 36.4522ZM38.7977 37.4088C38.6349 37.3761 38.464 37.3598 38.2891 37.3598C38.1141 37.3598 37.9432 37.3761 37.7804 37.4088C37.6217 37.4415 37.4753 37.4865 37.3328 37.5437C37.3247 37.5478 37.3166 37.5519 37.3084 37.556C37.1497 37.6255 37.0033 37.7032 36.869 37.7931C36.7347 37.8831 36.6126 37.9853 36.4987 38.0998C36.3848 38.2142 36.283 38.3369 36.1935 38.4718C36.104 38.6026 36.0267 38.7539 35.9575 38.9133C35.8965 39.0646 35.8477 39.224 35.8151 39.3917C35.7826 39.5552 35.7663 39.7269 35.7663 39.9027C35.7663 40.0785 35.7826 40.2502 35.8151 40.4137C35.8477 40.5732 35.8924 40.7244 35.9494 40.8635C35.9535 40.8716 35.9575 40.8798 35.9616 40.888C36.0308 41.0474 36.1081 41.1946 36.1976 41.3295C36.2871 41.4644 36.3888 41.5871 36.5028 41.7016C36.6167 41.816 36.7388 41.9182 36.873 42.0082C37.0033 42.094 37.1497 42.1758 37.3125 42.2453C37.4631 42.3066 37.6217 42.3557 37.7886 42.3925C37.9513 42.4252 38.1222 42.4415 38.2972 42.4415C38.4722 42.4415 38.6431 42.4252 38.8058 42.3925C38.9645 42.3598 39.111 42.3148 39.2534 42.2576C39.2616 42.2535 39.2697 42.2494 39.2819 42.2453C39.4406 42.1758 39.5871 42.094 39.7214 42.0082C39.8556 41.9182 39.9777 41.816 40.0916 41.7016C40.2056 41.5871 40.3073 41.4644 40.3968 41.3295C40.4863 41.1987 40.5636 41.0515 40.6328 40.888C40.6938 40.7367 40.7427 40.5814 40.7793 40.4096C40.8118 40.2461 40.8281 40.0744 40.8281 39.8986C40.8281 39.7228 40.8118 39.5511 40.7793 39.3876C40.7467 39.2281 40.702 39.081 40.645 38.9379C40.641 38.9297 40.6369 38.9215 40.6328 38.9133C40.5636 38.7539 40.4863 38.6067 40.3968 38.4718C40.3073 38.3369 40.2056 38.2142 40.0916 38.0998C39.9777 37.9853 39.8556 37.8831 39.7214 37.7931C39.5911 37.7032 39.4447 37.6255 39.2819 37.556C39.1273 37.4906 38.9686 37.4415 38.7977 37.4088ZM23.2703 28.4473H60.6117V53.6844H23.2703V28.4473ZM40.4904 55.2461H43.5137C43.7985 55.2461 44.0304 55.4792 44.0304 55.7653C44.0304 56.0515 43.7985 56.2845 43.5137 56.2845H40.4904C40.2056 56.2845 39.9736 56.0515 39.9736 55.7653C39.9736 55.4751 40.2056 55.2461 40.4904 55.2461Z" fill="white"/>
<defs>
<linearGradient id="paint0_linear" x1="42" y1="0" x2="42" y2="84" gradientUnits="userSpaceOnUse">
<stop stop-color="#F4C993"/>
<stop offset="1" stop-color="#E69191"/>
</linearGradient>
</defs>
</svg>
