<svg width="1436" height="742" viewBox="0 0 1436 742" fill="none" xmlns="http://www.w3.org/2000/svg">
<path d="M0 110.616C0 90.4792 11.927 72.4324 30.9281 65.7658C131.446 30.4986 457.845 -64.5605 725 77.3785C1045 247.394 1440 0 1440 0V740H0V110.616Z" fill="url(#paint0_linear)"/>
<path d="M1443 410.235L1443 740.001L61.9999 740.001C78.058 692.701 138.678 588.908 252.69 552.134C366.703 515.361 535.715 635.913 632.064 654.062C706.333 668.052 794.251 645.268 937.169 498.173C1080.09 351.077 1333.94 378.258 1443 410.235Z" fill="white" fill-opacity="0.5"/>
<path d="M1441 316.557L1441 742.001L59.9999 742.001C76.058 680.978 136.678 547.07 250.69 499.627C364.703 452.183 533.715 607.712 630.064 631.128C704.333 649.177 792.251 619.782 935.169 430.008C1078.09 240.235 1331.94 275.302 1441 316.557Z" fill="white" fill-opacity="0.5"/>
<defs>
<linearGradient id="paint0_linear" x1="1201" y1="112.253" x2="179.119" y2="540.513" gradientUnits="userSpaceOnUse">
<stop stop-color="#FADA67"/>
<stop offset="1" stop-color="#E69191"/>
</linearGradient>
</defs>
</svg>
