<svg width="360" height="741" viewBox="0 0 360 741" fill="none" xmlns="http://www.w3.org/2000/svg">
<path d="M-184 101.523C-184 86.2694 -177.096 71.8705 -164.299 63.569C-107.577 26.7728 60.911 -61.7074 199.322 77.3785C368.512 247.394 577.356 0 577.356 0V740H-184V101.523Z" fill="url(#paint0_linear)"/>
<path d="M579.999 378.691L579.999 741L-150.163 741C-141.672 689.032 -109.622 574.997 -49.3409 534.594C10.9399 494.191 100.3 626.64 151.241 646.58C190.509 661.951 236.993 636.918 312.556 475.307C388.119 313.695 522.336 343.558 579.999 378.691Z" fill="white" fill-opacity="0.5"/>
<path d="M579 275.554L579 740.178L-151 740.178C-142.512 673.535 -110.468 527.296 -50.2008 475.483C10.0666 423.67 99.4067 593.523 150.337 619.094C189.596 638.805 236.07 606.704 311.616 399.454C387.163 192.203 521.35 230.499 579 275.554Z" fill="white" fill-opacity="0.5"/>
<defs>
<linearGradient id="paint0_linear" x1="450.992" y1="112.253" x2="-154.464" y2="246.411" gradientUnits="userSpaceOnUse">
<stop stop-color="#FADA67"/>
<stop offset="1" stop-color="#E69191"/>
</linearGradient>
</defs>
</svg>
