<svg width="1440" height="630" viewBox="0 0 1440 630" fill="none" xmlns="http://www.w3.org/2000/svg">
<path d="M-21 2H1460V493.429C1460 511.668 1450.13 528.377 1433.6 536.075C1343.81 577.877 1038.51 698.538 726.5 575.5C355 429 -21 575.5 -21 575.5V2Z" fill="url(#paint0_linear)"/>
<path d="M0 331.766V2H1381C1364.94 49.2997 1304.32 153.093 1190.31 189.866C1076.3 226.64 907.285 106.088 810.936 87.9389C736.667 73.9489 648.749 96.7327 505.831 243.828C362.914 390.923 109.062 363.743 0 331.766Z" fill="white" fill-opacity="0.5"/>
<path d="M2 425.444V0H1383C1366.94 61.0233 1306.32 194.931 1192.31 242.374C1078.3 289.818 909.285 134.288 812.936 110.873C738.667 92.8241 650.749 122.218 507.831 311.992C364.914 501.766 111.062 466.699 2 425.444Z" fill="white" fill-opacity="0.5"/>
<defs>
<linearGradient id="paint0_linear" x1="115.787" y1="462.837" x2="1206.06" y2="92.0449" gradientUnits="userSpaceOnUse">
<stop stop-color="#FBDA68"/>
<stop offset="0.989583" stop-color="#E69191"/>
</linearGradient>
</defs>
</svg>
