<svg width="360" height="232" viewBox="0 0 360 232" fill="none" xmlns="http://www.w3.org/2000/svg">
<path d="M-136 215.509V0H435C428.36 30.9114 403.296 98.7422 356.156 122.775C309.015 146.807 239.134 68.0238 199.297 56.1629C168.589 47.0201 132.237 61.9098 73.1454 158.04C14.0535 254.17 -90.9065 236.407 -136 215.509Z" fill="url(#paint0_linear)" fill-opacity="0.8"/>
<path d="M-105.204 147.525V-5H406C400.056 16.8774 377.616 64.8844 335.412 81.8933C293.208 98.9022 230.645 43.1436 194.98 34.749C167.488 28.2783 134.943 38.8164 82.0393 106.852C29.1356 174.888 -64.8328 162.316 -105.204 147.525Z" fill="white" fill-opacity="0.5"/>
<path d="M-121 114.404V-11H421C414.698 6.98721 390.906 46.4577 346.16 60.4422C301.413 74.4266 235.081 28.5828 197.267 21.681C168.119 16.3608 133.614 25.0251 77.5233 80.9628C21.4326 136.9 -78.1967 126.564 -121 114.404Z" fill="white" fill-opacity="0.5"/>
<defs>
<linearGradient id="paint0_linear" x1="149.5" y1="0" x2="149.5" y2="232" gradientUnits="userSpaceOnUse">
<stop stop-color="#FFFBA0"/>
<stop offset="1" stop-color="#E69191"/>
</linearGradient>
</defs>
</svg>
