<svg width="84" height="84" viewBox="0 0 84 84" fill="none" xmlns="http://www.w3.org/2000/svg">
<circle cx="42" cy="42" r="42" fill="url(#paint0_linear)"/>
<g clip-path="url(#clip0)">
<path d="M36.6249 20H47.872C48.4973 20 49.0653 20.2578 49.4798 20.6696V20.6732H49.4833L49.4869 20.6768C49.8978 21.0921 50.1515 21.6615 50.1515 22.2845V25.7399C50.1515 26.3701 49.8942 26.9395 49.4833 27.3548C49.4619 27.3763 49.4405 27.3942 49.419 27.4121C49.0117 27.7917 48.4651 28.0244 47.872 28.0244H47.6112V37.1159C50.0228 38.1758 52.0772 39.8945 53.5528 42.043C55.0962 44.2988 56.0001 47.0273 56.0001 49.9671C56.0001 57.7158 49.7334 63.9964 42.0019 63.9964C34.2668 64 28.0001 57.7194 28.0001 49.9707C28.0001 46.9844 28.9362 44.2129 30.5297 41.932C32.0445 39.762 34.1596 38.0433 36.6284 37.012V28.0244H36.6249C35.9996 28.0244 35.4315 27.7666 35.0135 27.3512L35.0099 27.3548C34.5955 26.9395 34.3418 26.3701 34.3418 25.7399V22.2845C34.3418 21.6579 34.5991 21.0885 35.0099 20.6732H35.0135V20.6696L35.0171 20.666C35.4315 20.2542 36.0032 20 36.6249 20ZM34.3133 46.5762C35.1278 46.5762 35.8138 47.1383 36.0032 47.8975C37.1679 47.9333 38.2398 48.1087 39.0508 48.499C42.9951 50.404 43.4953 49.7809 44.3528 48.7174C45.0781 47.8151 45.982 46.6908 48.0399 45.8636C49.0653 45.4518 50.1122 45.2012 51.1733 45.0508C51.8164 44.9613 52.4559 44.9111 53.099 44.8861C52.806 44.2451 52.4595 43.6328 52.0665 43.0599C50.6945 41.0547 48.7438 39.4827 46.4536 38.584C46.082 38.473 45.8105 38.1257 45.8105 37.7174V27.1221C45.8105 26.6243 46.2142 26.2197 46.7109 26.2197H47.8756C47.9935 26.2197 48.1007 26.1768 48.1828 26.1087C48.19 26.098 48.2007 26.0908 48.2114 26.0801C48.2972 25.9941 48.3508 25.8724 48.3508 25.7435V22.2845C48.3508 22.152 48.2972 22.0339 48.215 21.9479L48.2114 21.9443C48.1257 21.8584 48.0078 21.8083 47.8756 21.8083H36.6249C36.4927 21.8083 36.3748 21.862 36.289 21.9443L36.2854 21.9479C36.1997 22.0339 36.1497 22.152 36.1497 22.2845V25.7399C36.1497 25.8688 36.2033 25.9906 36.289 26.0765V26.0801C36.3748 26.166 36.4927 26.2161 36.6249 26.2161H37.5288C38.0254 26.2161 38.4291 26.6208 38.4291 27.1185V37.6243H38.4255C38.4255 37.9932 38.1969 38.3405 37.8325 38.473C35.4565 39.3395 33.4236 40.9222 31.9981 42.9596C30.8584 44.5889 30.1081 46.5117 29.8758 48.5957C30.669 48.4167 31.6051 48.2412 32.5804 48.1087C32.6876 47.2493 33.4236 46.5762 34.3133 46.5762ZM35.3851 49.695C35.0885 49.9277 34.717 50.0674 34.3133 50.0674C33.9917 50.0674 33.688 49.9779 33.4272 49.8239C32.0945 49.9707 30.794 50.2249 29.8151 50.4648C30.0759 56.9854 35.4315 62.1917 41.9983 62.1917C48.7331 62.1917 54.1923 56.7204 54.1923 49.9707C54.1923 48.8284 54.0351 47.7256 53.7457 46.6764C53.2562 46.6836 52.7739 46.7051 52.2987 46.7445C52.681 47.1598 52.9132 47.7148 52.9132 48.3236C52.9132 48.9645 52.6524 49.5482 52.2344 49.9671C51.8164 50.3861 51.234 50.6475 50.5945 50.6475C49.955 50.6475 49.3726 50.3861 48.9546 49.9671C48.5366 49.5482 48.2757 48.9645 48.2757 48.3236C48.2757 48.1016 48.3079 47.8903 48.3651 47.6862C46.9788 48.3236 46.3036 49.165 45.7533 49.849C44.3314 51.6178 43.5025 52.6491 38.2683 50.1247C37.5788 49.7952 36.5391 49.6807 35.3851 49.695ZM35.6352 52.7207C36.5963 52.7207 37.3751 53.5013 37.3751 54.4645C37.3751 55.4277 36.5963 56.2083 35.6352 56.2083C34.6741 56.2083 33.8952 55.4277 33.8952 54.4645C33.8952 53.5013 34.6741 52.7207 35.6352 52.7207ZM41.3374 56.0866C41.9769 56.0866 42.5593 56.348 42.9773 56.7669C43.3953 57.1895 43.6561 57.7695 43.6561 58.4105C43.6561 59.0514 43.3953 59.6351 42.9773 60.054C42.5593 60.4766 41.9769 60.7344 41.3374 60.7344C40.6978 60.7344 40.1155 60.473 39.6975 60.054C39.2794 59.6351 39.0186 59.0514 39.0186 58.4105C39.0186 57.7695 39.2794 57.1859 39.6975 56.7669C40.1155 56.348 40.6943 56.0866 41.3374 56.0866ZM42.1555 57.5905C41.9447 57.3792 41.6553 57.2503 41.3338 57.2503C41.0122 57.2503 40.7228 57.3792 40.5121 57.5905C40.3013 57.8018 40.1726 58.0918 40.1726 58.4141C40.1726 58.7363 40.3013 59.0264 40.5121 59.2376C40.7228 59.4489 41.0122 59.5778 41.3338 59.5778C41.6553 59.5778 41.9447 59.4489 42.1555 59.2376C42.3663 59.0264 42.495 58.7363 42.495 58.4141C42.495 58.0918 42.3663 57.8018 42.1555 57.5905ZM47.8613 54.3428C48.5008 54.3428 49.0832 54.6042 49.5012 55.0231C49.9192 55.4456 50.18 56.0257 50.18 56.6667C50.18 57.3076 49.9192 57.8913 49.5012 58.3102C49.0832 58.7327 48.5008 58.9906 47.8613 58.9906C47.2218 58.9906 46.6394 58.7292 46.2214 58.3102C45.8034 57.8913 45.5425 57.3076 45.5425 56.6667C45.5425 56.0257 45.8034 55.4421 46.2214 55.0231C46.643 54.6042 47.2218 54.3428 47.8613 54.3428ZM48.683 55.8467C48.4722 55.6354 48.1828 55.5065 47.8613 55.5065C47.5397 55.5065 47.2503 55.6354 47.0396 55.8467C46.8288 56.0579 46.7001 56.348 46.7001 56.6702C46.7001 56.9925 46.8288 57.2826 47.0396 57.4938C47.2503 57.7051 47.5397 57.834 47.8613 57.834C48.1828 57.834 48.4722 57.7051 48.683 57.4938C48.8938 57.2826 49.0225 56.9925 49.0225 56.6702C49.0225 56.348 48.8938 56.0579 48.683 55.8467ZM51.4162 47.5C51.2054 47.2887 50.916 47.1598 50.5945 47.1598C50.2729 47.1598 49.9835 47.2887 49.7727 47.5C49.5655 47.7113 49.4369 48.0013 49.4369 48.3236C49.4369 48.6458 49.5655 48.9359 49.7763 49.1471C49.9871 49.3584 50.2765 49.4873 50.5981 49.4873C50.9196 49.4873 51.209 49.3584 51.4198 49.1471C51.6306 48.9359 51.7592 48.6458 51.7592 48.3236C51.7556 48.0013 51.627 47.7113 51.4162 47.5Z" fill="white"/>
</g>
<defs>
<linearGradient id="paint0_linear" x1="42" y1="0" x2="42" y2="84" gradientUnits="userSpaceOnUse">
<stop stop-color="#F4C993"/>
<stop offset="1" stop-color="#E69191"/>
</linearGradient>
<clipPath id="clip0">
<rect width="28" height="44" fill="white" transform="translate(28.0001 20)"/>
</clipPath>
</defs>
</svg>
