<svg width="152" height="369" viewBox="0 0 152 369" fill="none" xmlns="http://www.w3.org/2000/svg">
<path d="M-77.464 242.59C-134.12 2.58002 -19.2592 -15.5034 3.10501 8.74412C25.4692 32.9917 31.7771 103.68 61.0229 129.161C90.2686 154.641 153.634 164.916 151.627 242.59C149.62 320.265 -20.8077 482.6 -77.464 242.59Z" fill="#302F2F"/>
<path d="M112.795 169.497C114.126 168.684 115.462 167.895 116.8 167.105" stroke="#FFFBA0" stroke-width="3" stroke-linecap="round" stroke-linejoin="round"/>
<path d="M108.456 164.235C108.456 163.438 108.456 162.641 108.456 161.844" stroke="#FFFBA0" stroke-width="3" stroke-linecap="round" stroke-linejoin="round"/>
<path d="M104.118 166.627C103.451 166.627 102.783 166.627 102.116 166.627" stroke="#FFFBA0" stroke-width="3" stroke-linecap="round" stroke-linejoin="round"/>
<path d="M106.12 174.759C105.65 175.622 105.275 176.672 104.452 176.672" stroke="#FFFBA0" stroke-width="3" stroke-linecap="round" stroke-linejoin="round"/>
<path d="M109.124 178.586C109.891 179.418 110.817 180.127 111.126 181.456" stroke="#FFFBA0" stroke-width="3" stroke-linecap="round" stroke-linejoin="round"/>
<path d="M114.797 175.716C115.465 175.716 116.132 175.716 116.799 175.716" stroke="#FFFBA0" stroke-width="3" stroke-linecap="round" stroke-linejoin="round"/>
<path d="M117.133 182.891C117.291 183.895 117.488 184.865 117.8 185.761" stroke="#FFFBA0" stroke-width="3" stroke-linecap="round" stroke-linejoin="round"/>
<path d="M108.123 171.41C109.012 171.41 109.902 171.41 110.792 171.41" stroke="#FFFBA0" stroke-width="3" stroke-linecap="round" stroke-linejoin="round"/>
<path d="M97.7773 157.539C98.7404 157.757 99.5507 158.067 100.447 158.495" stroke="#FFFBA0" stroke-width="3" stroke-linecap="round" stroke-linejoin="round"/>
<path d="M104.452 151.32C104.428 152.684 104.467 153.691 103.784 154.669" stroke="#FFFBA0" stroke-width="3" stroke-linecap="round" stroke-linejoin="round"/>
<path d="M109.791 156.582C111.577 156.535 113.349 156.104 115.131 156.104" stroke="#FFFBA0" stroke-width="3" stroke-linecap="round" stroke-linejoin="round"/>
<path d="M117.133 164.235C117.509 162.511 117.929 160.998 118.468 159.452" stroke="#FFFBA0" stroke-width="3" stroke-linecap="round" stroke-linejoin="round"/>
<path d="M114.129 148.929C113.108 148.197 112.094 147.231 111.126 146.537" stroke="#FFFBA0" stroke-width="3" stroke-linecap="round" stroke-linejoin="round"/>
<path d="M121.138 159.452C122.695 160.887 124.252 162.322 125.81 163.757" stroke="#FFFBA0" stroke-width="3" stroke-linecap="round" stroke-linejoin="round"/>
<path d="M123.14 152.755C124.141 152.579 125.141 152.421 126.144 152.277" stroke="#FFFBA0" stroke-width="3" stroke-linecap="round" stroke-linejoin="round"/>
<path d="M120.47 148.928C120.337 147.187 120.137 145.423 120.137 143.667" stroke="#FFFBA0" stroke-width="3" stroke-linecap="round" stroke-linejoin="round"/>
<path d="M124.141 171.41C124.691 172.175 125.198 172.739 125.81 173.324" stroke="#FFFBA0" stroke-width="3" stroke-linecap="round" stroke-linejoin="round"/>
<path d="M125.142 184.326C126.146 184.256 126.382 183.994 127.145 183.369" stroke="#FFFBA0" stroke-width="3" stroke-linecap="round" stroke-linejoin="round"/>
<path d="M129.815 178.107C130.82 177.839 131.796 177.629 132.818 177.629" stroke="#FFFBA0" stroke-width="3" stroke-linecap="round" stroke-linejoin="round"/>
<path d="M132.151 170.932C132.302 169.82 132.484 168.72 132.484 167.584" stroke="#FFFBA0" stroke-width="3" stroke-linecap="round" stroke-linejoin="round"/>
<path d="M129.147 159.93C129.814 159.611 130.482 159.293 131.149 158.974" stroke="#FFFBA0" stroke-width="3" stroke-linecap="round" stroke-linejoin="round"/>
<path d="M127.479 148.929C128.242 147.896 128.939 147.29 129.815 146.537" stroke="#FFFBA0" stroke-width="3" stroke-linecap="round" stroke-linejoin="round"/>
<path d="M124.475 143.667C123.436 142.131 123.233 141.194 122.806 139.362" stroke="#FFFBA0" stroke-width="3" stroke-linecap="round" stroke-linejoin="round"/>
<path d="M114.463 136.97C116.216 137.001 117.285 136.71 118.468 138.405" stroke="#FFFBA0" stroke-width="3" stroke-linecap="round" stroke-linejoin="round"/>
<path d="M111.126 138.405C109.458 138.405 107.789 138.405 106.12 138.405" stroke="#FFFBA0" stroke-width="3" stroke-linecap="round" stroke-linejoin="round"/>
<path d="M100.447 143.667C100.572 142.391 100.682 141.119 100.781 139.84" stroke="#FFFBA0" stroke-width="3" stroke-linecap="round" stroke-linejoin="round"/>
<path d="M101.448 152.277C100.573 151.096 99.4413 150.673 98.7786 149.407" stroke="#FFFBA0" stroke-width="3" stroke-linecap="round" stroke-linejoin="round"/>
<path d="M110.125 133.143C110.904 130.911 111.682 128.679 112.461 126.446" stroke="#FFFBA0" stroke-width="3" stroke-linecap="round" stroke-linejoin="round"/>
<path d="M119.803 133.143C120.37 131.714 120.858 129.743 121.805 128.838" stroke="#FFFBA0" stroke-width="3" stroke-linecap="round" stroke-linejoin="round"/>
<path d="M127.812 140.797C127.776 137.781 127.699 136.489 126.144 134.578" stroke="#FFFBA0" stroke-width="3" stroke-linecap="round" stroke-linejoin="round"/>
</svg>
