<svg width="280" height="448" viewBox="0 0 280 448" fill="none" xmlns="http://www.w3.org/2000/svg">
<path d="M-119.908 294.273C-218.708 2.27277 -18.4073 -19.7278 20.5925 9.77211C59.5923 39.272 70.5923 125.272 121.592 156.273C172.593 187.273 283.092 199.773 279.592 294.273C276.093 388.773 -21.1076 586.273 -119.908 294.273Z" fill="#302F2F"/>
<path d="M211.875 205.347C214.195 204.358 216.526 203.397 218.858 202.437" stroke="#FFFBA0" stroke-width="3" stroke-linecap="round" stroke-linejoin="round"/>
<path d="M204.309 198.945C204.309 197.975 204.309 197.005 204.309 196.035" stroke="#FFFBA0" stroke-width="3" stroke-linecap="round" stroke-linejoin="round"/>
<path d="M196.744 201.855C195.58 201.855 194.416 201.855 193.252 201.855" stroke="#FFFBA0" stroke-width="3" stroke-linecap="round" stroke-linejoin="round"/>
<path d="M200.236 211.748C199.415 212.798 198.761 214.076 197.326 214.076" stroke="#FFFBA0" stroke-width="3" stroke-linecap="round" stroke-linejoin="round"/>
<path d="M205.473 216.404C206.81 217.417 208.426 218.279 208.965 219.896" stroke="#FFFBA0" stroke-width="3" stroke-linecap="round" stroke-linejoin="round"/>
<path d="M215.367 212.912C216.53 212.912 217.694 212.912 218.858 212.912" stroke="#FFFBA0" stroke-width="3" stroke-linecap="round" stroke-linejoin="round"/>
<path d="M219.44 221.642C219.715 222.864 220.06 224.044 220.604 225.133" stroke="#FFFBA0" stroke-width="3" stroke-linecap="round" stroke-linejoin="round"/>
<path d="M203.727 207.675C205.279 207.675 206.831 207.675 208.383 207.675" stroke="#FFFBA0" stroke-width="3" stroke-linecap="round" stroke-linejoin="round"/>
<path d="M185.687 190.798C187.366 191.063 188.779 191.441 190.342 191.962" stroke="#FFFBA0" stroke-width="3" stroke-linecap="round" stroke-linejoin="round"/>
<path d="M197.326 183.232C197.285 184.891 197.352 186.116 196.162 187.306" stroke="#FFFBA0" stroke-width="3" stroke-linecap="round" stroke-linejoin="round"/>
<path d="M206.637 189.634C209.752 189.577 212.842 189.052 215.948 189.052" stroke="#FFFBA0" stroke-width="3" stroke-linecap="round" stroke-linejoin="round"/>
<path d="M219.44 198.945C220.096 196.848 220.828 195.007 221.768 193.126" stroke="#FFFBA0" stroke-width="3" stroke-linecap="round" stroke-linejoin="round"/>
<path d="M214.203 180.323C212.422 179.432 210.653 178.257 208.965 177.413" stroke="#FFFBA0" stroke-width="3" stroke-linecap="round" stroke-linejoin="round"/>
<path d="M226.424 193.126C229.14 194.872 231.855 196.617 234.571 198.363" stroke="#FFFBA0" stroke-width="3" stroke-linecap="round" stroke-linejoin="round"/>
<path d="M229.915 184.978C231.661 184.763 233.404 184.571 235.153 184.396" stroke="#FFFBA0" stroke-width="3" stroke-linecap="round" stroke-linejoin="round"/>
<path d="M225.26 180.322C225.028 178.204 224.678 176.058 224.678 173.921" stroke="#FFFBA0" stroke-width="3" stroke-linecap="round" stroke-linejoin="round"/>
<path d="M231.661 207.675C232.62 208.604 233.504 209.291 234.571 210.002" stroke="#FFFBA0" stroke-width="3" stroke-linecap="round" stroke-linejoin="round"/>
<path d="M233.407 223.388C235.157 223.302 235.569 222.983 236.899 222.224" stroke="#FFFBA0" stroke-width="3" stroke-linecap="round" stroke-linejoin="round"/>
<path d="M241.555 215.822C243.307 215.496 245.01 215.24 246.792 215.24" stroke="#FFFBA0" stroke-width="3" stroke-linecap="round" stroke-linejoin="round"/>
<path d="M245.628 207.093C245.892 205.739 246.21 204.402 246.21 203.019" stroke="#FFFBA0" stroke-width="3" stroke-linecap="round" stroke-linejoin="round"/>
<path d="M240.391 193.708C241.555 193.32 242.719 192.932 243.883 192.544" stroke="#FFFBA0" stroke-width="3" stroke-linecap="round" stroke-linejoin="round"/>
<path d="M237.481 180.323C238.813 179.067 240.027 178.329 241.555 177.413" stroke="#FFFBA0" stroke-width="3" stroke-linecap="round" stroke-linejoin="round"/>
<path d="M232.243 173.921C230.431 172.052 230.077 170.913 229.334 168.683" stroke="#FFFBA0" stroke-width="3" stroke-linecap="round" stroke-linejoin="round"/>
<path d="M214.785 165.774C217.842 165.812 219.706 165.457 221.768 167.52" stroke="#FFFBA0" stroke-width="3" stroke-linecap="round" stroke-linejoin="round"/>
<path d="M208.965 167.52C206.055 167.52 203.145 167.52 200.236 167.52" stroke="#FFFBA0" stroke-width="3" stroke-linecap="round" stroke-linejoin="round"/>
<path d="M190.342 173.921C190.56 172.369 190.751 170.821 190.924 169.265" stroke="#FFFBA0" stroke-width="3" stroke-linecap="round" stroke-linejoin="round"/>
<path d="M192.088 184.396C190.562 182.96 188.588 182.446 187.432 180.905" stroke="#FFFBA0" stroke-width="3" stroke-linecap="round" stroke-linejoin="round"/>
<path d="M207.219 161.118C208.577 158.402 209.935 155.686 211.293 152.97" stroke="#FFFBA0" stroke-width="3" stroke-linecap="round" stroke-linejoin="round"/>
<path d="M224.096 161.118C225.085 159.379 225.936 156.981 227.588 155.88" stroke="#FFFBA0" stroke-width="3" stroke-linecap="round" stroke-linejoin="round"/>
<path d="M238.063 170.429C238 166.761 237.865 165.188 235.153 162.864" stroke="#FFFBA0" stroke-width="3" stroke-linecap="round" stroke-linejoin="round"/>
</svg>
